<?xml version="1.0" encoding="utf-8" ?>
<svg baseProfile="full" height="200mm" version="1.1" viewBox="0,0,200,200" width="200mm" xmlns="http://www.w3.org/2000/svg" xmlns:ev="http://www.w3.org/2001/xml-events" xmlns:xlink="http://www.w3.org/1999/xlink"><defs /><rect fill="#1a1a1a" height="200" width="200" x="0" y="0" /><text alignment-baseline="middle" fill="#e1ed5e" style="dominant-baseline: central; font-size:9.0px; font-family:Arial;" text-anchor="middle" x="100.0" y="100.0">2023</text><line stroke="#e1ed5e" stroke-width="0.3" x1="100.0" x2="100.0" y1="15.0" y2="10.0" /><path d="M 100.0 14.0 a86.0,86.0 0 0,1 42.46469731375804,11.215312516191453" fill="none" id="id1" stroke="none" /><text fill="#e1ed5e" style="font-size:6.75px; font-family:Arial;" text-anchor="middle"><textPath startOffset="22.20632615414155" xlink:href="#id1">January</textPath></text><line stroke="#e1ed5e" stroke-width="0.3" x1="143.23703022742887" x2="145.7803849466894" y1="26.81831364943548" y2="22.513508569990506" /><path d="M 143.74570117128098 25.957352633546492 a86.0,86.0 0 0,1 28.547481713284135,27.462654790039103" fill="none" id="id2" stroke="none" /><text fill="#e1ed5e" style="font-size:6.75px; font-family:Arial;" text-anchor="middle"><textPath startOffset="19.985693538727396" xlink:href="#id2">February</textPath></text><line stroke="#e1ed5e" stroke-width="0.3" x1="172.23445277983987" x2="176.4835382374775" y1="55.19839476539836" y2="52.563006222186495" /><path d="M 173.08426987136738 54.67131705675599 a86.0,86.0 0 0,1 12.851231095245387,41.99856678651699" fill="none" id="id3" stroke="none" /><text fill="#e1ed5e" style="font-size:6.75px; font-family:Arial;" text-anchor="middle"><textPath startOffset="22.20632615414155" xlink:href="#id3">March</textPath></text><path d="M 120.67395015179393 96.31383870115 l 6.933058439604727 -1.2361629739403557 a28.042400033022506,28.042400033022506 0 0,0 0.08063944459521265,0.47593856673817403 l -6.953309745720163 1.1166386188863444" fill="#ff5007" stroke="none" /><path d="M 120.73433829027371 96.67025291283417 l 6.928301174411046 -1.1126224686574377 a28.017071035774602,28.017071035774602 0 0,0 0.07236957079920296,0.476825050302853 l -6.946426638649549 0.9931983059625021" fill="#ff5007" stroke="none" /><path d="M 120.87857604477298 97.74499172005257 l 10.486187392767938 -1.1325695461732412 a31.54717212399439,31.54717212399439 0 0,0 0.05366455546983574,0.5403947500037964 l -10.504129073920003 0.9518992654650098" fill="#ff800b" stroke="none" /><path d="M 120.94382443527127 98.46500227214037 l 6.9761468011051795 -0.511290071305117 a27.994858234988413,27.994858234988413 0 0,0 0.031086835664528634,0.4808995883711115 l -6.9839142277741235 0.3911314186809703" fill="#ff5007" stroke="none" /><line stroke="#e1ed5e" stroke-width="0.3" x1="184.98032266829074" x2="189.97916517819016" y1="98.17113171792111" y2="98.06355123074" /><path d="M 185.9800911702706 98.14961562048488 a86.0,86.0 0 0,1 -9.607161424134198,41.387399972396054" fill="none" id="id4" stroke="none" /><text fill="#e1ed5e" style="font-size:6.75px; font-family:Arial;" text-anchor="middle"><textPath startOffset="21.466115282336823" xlink:href="#id4">April</textPath></text><path d="M 120.99513854157772 99.54816195383933 l 7.032582633979971 -0.15134877012162673 a28.03421103990874,28.03421103990874 0 0,0 0.006230260161129248,0.4825405154670524 l -7.034145901258817 0.030271996594111627" fill="#ff5007" stroke="none" /><path d="M 120.99980553446 99.90962569577887 l 14.815981716732297 -0.06376173516490125 a35.816118917902116,35.816118917902116 0 0,0 -0.0026532968228601297,0.6165327388738722 l -14.814884122619935 -0.19128048191265562" fill="#ffb911" stroke="none" /><path d="M 120.9764740272857 100.99374915477107 l 3.7762255263168383 0.17889664965241317 a24.78046071754009,24.78046071754009 0 0,0 -0.02385254941855806,0.42590329310472425 l -3.772586626010751 -0.24387165909256073" fill="#ff2203" stroke="none" /><path d="M 120.95626037817324 101.35467743843564 l 4.914654324474253 0.3176984448050548 a25.924912124181002,25.924912124181002 0 0,0 -0.03262025688788084,0.44507748832037286 l -4.9084575089220355 -0.4022490696221979" fill="#ff3204" stroke="none" /><path d="M 120.89721153311464 102.0752229133903 l 6.518991301272986 0.6473763305288894 a27.551056685711238,27.551056685711238 0 0,0 -0.05092707675016036,0.4715214813716775 l -6.506881923021774 -0.7594941337853583" fill="#ff4906" stroke="none" /><path d="M 120.8583938346157 102.4346265915055 l 6.965628900896228 0.8130398478015745 a28.012918064480292,28.012918064480292 0 0,0 -0.060025668309205596,0.4784636362062378 l -6.950601723340175 -0.9328212382952071" fill="#ff5007" stroke="none" /><path d="M 120.70491114924044 103.5080841355445 l 6.918773313194171 1.1722648178731996 a28.017380491507577,28.017380491507577 0 0,0 -0.08465726040584597,0.47480287478573685 l -6.8975696104491355 -1.291186443392155" fill="#ff5007" stroke="none" /><path d="M 120.64145759157962 103.86396538481128 l 6.896331443521529 1.2909546654700936 a28.01612081760304,28.01612081760304 0 0,0 -0.09281349538297787,0.473254013373841 l -6.873088015162886 -1.4094724059118795" fill="#ff5007" stroke="none" /><path d="M 120.32669344350535 105.2749913415812 l 6.816305407244414 1.7689031472197387 a28.042090438859283,28.042090438859283 0 0,0 -0.1252705927365355,0.46617847737700213 l -6.784846738166101 -1.8859725577722892" fill="#ff5007" stroke="none" /><path d="M 120.23288151984713 105.62410040840565 l 6.7538320393353 1.8773514535469824 a28.00989983492539,28.00989983492539 0 0,0 -0.13312353540992297,0.46342049092906046 l -6.7205158670392775 -1.9933294199806249" fill="#ff5007" stroke="none" /><path d="M 120.02730092923936 106.31721596034902 l 6.707582906897167 2.1157743594370806 a28.03336118743737,28.03336118743737 0 0,0 -0.1491211273665304,0.45894763874098804 l -6.670169528514389 -2.2309208981558637" fill="#ff5007" stroke="none" /><path d="M 119.79798401119884 107.00284435728193 l 6.666853512333522 2.3581662392120966 a28.071625256380145,28.071625256380145 0 0,0 -0.16505546063408952,0.454161739165404 l -6.625273790694206 -2.472575775383632" fill="#ff5107" stroke="none" /><path d="M 119.67450827220406 107.3425965602758 l 6.582566451368966 2.45663724424021 a28.026040679961678,28.026040679961678 0 0,0 -0.17256797048876812,0.45052051659669884 l -6.539304201286691 -2.5695813276700523" fill="#ff5007" stroke="none" /><path d="M 119.41010516605496 108.01547362559984 l 6.500672721308124 2.6844764776146723 a28.03314721788376,28.03314721788376 0 0,0 -0.18802101332049603,0.44442613498020095 l -6.453500726795316 -2.795977138261037" fill="#ff5007" stroke="none" /><line stroke="#e1ed5e" stroke-width="0.3" x1="174.80103733775053" x2="179.2010983576182" y1="140.37084112569926" y2="142.7455964860345" /><path d="M 175.68104954172406 140.8457921977663 a86.0,86.0 0 0,1 -30.038265399797805,32.042727171017184" fill="none" id="id5" stroke="none" /><text fill="#e1ed5e" style="font-size:6.75px; font-family:Arial;" text-anchor="middle"><textPath startOffset="22.206326154141568" xlink:href="#id5">May</textPath></text><path d="M 118.30583269289576 110.29060199501023 l 1.8383555055619252 1.0334293528431155 a23.108916117854758,23.108916117854758 0 0,0 -0.19790916356562985,0.3450713084897232 l -1.8202943458439134 -1.0649205071911527" fill="#ff0a01" stroke="none" /><path d="M 117.94076556474637 110.91462005526583 l 5.389110671596699 3.278572210532531 a27.308054341109752,27.308054341109752 0 0,0 -0.24776904637381889,0.3994825941364469 l -5.331876985554917 -3.3708511360342515" fill="#ff4606" stroke="none" /><path d="M 117.75023020441432 111.22182372390056 l 5.9253933123948235 3.746076444120566 a28.010233564708688,28.010233564708688 0 0,0 -0.2611555956020413,0.40531928387952826 l -5.860032853415732 -3.847517327921547" fill="#ff5007" stroke="none" /><path d="M 117.14729908036423 112.12312394758627 l 7.456600550342902 5.271809413003299 a30.131969461972826,30.131969461972826 0 0,0 -0.30307051647094746,0.42093844008169456 l -7.364750241496352 -5.3993814585361255" fill="#ff6d0a" stroke="none" /><path d="M 116.93607887273984 112.41649034213515 l 5.666406195860773 4.154260164598419 a28.026096831930133,28.026096831930133 0 0,0 -0.2885870323055841,0.38660948999214045 l -5.594057896860098 -4.251182534099875" fill="#ff5007" stroke="none" /><path d="M 115.56566222782051 114.09645910891815 l 5.220925994791585 4.728136119048521 a28.043673714997148,28.043673714997148 0 0,0 -0.3271142194992591,0.3550178794234658 l -5.138765367296602 -4.817305253273322" fill="#ff5007" stroke="none" /><path d="M 115.07121518719521 114.62390073753431 l 5.045975385563031 4.896210573996063 a28.03098468044262,28.03098468044262 0 0,0 -0.33898720707252694,0.34339225105362975 l -4.960947553434968 -4.982343319030358" fill="#ff5007" stroke="none" /><path d="M 114.81725581225074 114.88116024355365 l 4.963830070501188 4.985238267927152 a28.035069975260882,28.035069975260882 0 0,0 -0.34489817444079,0.337555455133486 l -4.877281943684604 -5.06994382598321" fill="#ff5007" stroke="none" /><path d="M 113.48314897796784 116.09983520530334 l 4.494712999615354 5.367005786792728 a28.000513985728325,28.000513985728325 0 0,0 -0.37217999378661554,0.3062787970014114 l -4.401662877284047 -5.443579702651318" fill="#ff5007" stroke="none" /><path d="M 112.63410532772338 116.77436683061366 l 4.228901361079688 5.614734156566887 a28.029142648336318,28.029142648336318 0 0,0 -0.3878900057089781,0.28695175308315 l -4.131626384952146 -5.686695858389806" fill="#ff5007" stroke="none" /><path d="M 112.34349029814194 116.9893568818739 l 4.142679246511 5.701908817208883 a28.047946899575603,28.047946899575603 0 0,0 -0.39303544202336693,0.28042035214545413 l -4.043916476638749 -5.772373431198557" fill="#ff5007" stroke="none" /><line stroke="#e1ed5e" stroke-width="0.3" x1="143.8653032363475" x2="146.44561519142675" y1="172.8068346515853" y2="177.08958963109032" /><path d="M 144.38136562736335 173.6633856474863 a86.0,86.0 0 0,1 -40.68145358897372,12.25698825130547" fill="none" id="id6" stroke="none" /><text fill="#e1ed5e" style="font-size:6.75px; font-family:Arial;" text-anchor="middle"><textPath startOffset="21.466115282336833" xlink:href="#id6">June</textPath></text><path d="M 109.89434966115114 118.52300852407294 l 29.683048983453418 55.56902557221878 a84.0,84.0 0 0,0 -1.2812363898940176,0.6702823242211329 l -28.722121691032903 -56.07173731538463" fill="#4dd2ff" stroke="none" /><path d="M 108.92500713936063 119.00905698771935 l 2.9984572622764354 6.3863080537476105 a28.055187914652585,28.055187914652585 0 0,0 -0.43890605308202313,0.20148024198746795 l -2.888083213426993 -6.436975366069152" fill="#ff5007" stroke="none" /><path d="M 107.93186726928326 119.44442032107085 l 10.108316396850478 24.77983381288902 a47.76225371999216,47.76225371999216 0 0,0 -0.7639206850136351,0.3039798060930917 l -9.680274635794976 -24.95016046338818" fill="#b4ff20" stroke="none" /><path d="M 107.2578585660854 119.70592522655815 l 1.2606654819514573 3.42285255311022 a24.647628963822534,24.647628963822534 0 0,0 -0.39938600063070506,0.14320561035288987 l -1.2015599206910175 -3.44404570450307" fill="#ff2003" stroke="none" /><path d="M 106.57524785965236 119.94407469862006 l 1.3789634006954914 4.182678684843992 a25.40412772761031,25.40412772761031 0 0,0 -0.41648090110474395,0.13334403250036675 l -1.306761154499807 -4.205795564004065" fill="#ff2b04" stroke="none" /><path d="M 102.34483914955558 120.86867818915974 l 0.3777213391981385 3.361657056262627 a24.382811193963676,24.382811193963676 0 0,0 -0.41748876706996974,0.04327441771538236 l -0.3197999755225661 -3.367660842433768" fill="#ff1c02" stroke="none" /><path d="M 101.98527174616119 120.90594882070398 l 0.4074285396869639 4.29043541029584 a25.30973711783815,25.30973711783815 0 0,0 -0.4340688399741536,0.03745328597939462 l -0.3335153819712686 -4.296812948553899" fill="#ff2904" stroke="none" /><path d="M 101.26447882468166 120.96189622390904 l 0.1880277890773175 3.117030451531723 a24.12269647664344,24.12269647664344 0 0,0 -0.4146943452432571,0.02143496084147229 l -0.1343453754205808 -3.119805219135397" fill="#ff1802" stroke="none" /><line stroke="#e1ed5e" stroke-width="0.3" x1="102.19456741930631" x2="102.32365962044197" y1="184.97166512339345" y2="189.96999836594603" /><path d="M 102.22038585953345 185.97133177190398 a86.0,86.0 0 0,1 -42.740103519485714,-10.115201625700543" fill="none" id="id7" stroke="none" /><text fill="#e1ed5e" style="font-size:6.75px; font-family:Arial;" text-anchor="middle"><textPath startOffset="22.20632615414155" xlink:href="#id7">July</textPath></text><path d="M 98.01472825383883 120.90594882070398 l -0.13799006838724392 1.4531075219538014 a22.45964472709363,22.45964472709363 0 0,0 -0.38455981598485395,-0.039861197297048706 l 0.16298248097769122 -1.450516956200992" fill="#ff0000" stroke="none" /><line stroke="#e1ed5e" stroke-width="0.3" x1="58.666819895761336" x2="56.23545636021788" y1="174.27360380694188" y2="178.64263932499728" /><path d="M 58.180547188652646 175.14741091055294 a86.0,86.0 0 0,1 -31.652253787137756,-30.449443065178592" fill="none" id="id8" stroke="none" /><text fill="#e1ed5e" style="font-size:6.75px; font-family:Arial;" text-anchor="middle"><textPath startOffset="22.20632615414155" xlink:href="#id8">August</textPath></text><line stroke="#e1ed5e" stroke-width="0.3" x1="26.63291911575756" x2="22.317208475507996" y1="142.92168965132927" y2="145.44649492493687" /><path d="M 25.769776987707644 143.4266507060508 a86.0,86.0 0 0,1 -11.730757126820373,-40.83630448921669" fill="none" id="id9" stroke="none" /><text fill="#e1ed5e" style="font-size:6.75px; font-family:Arial;" text-anchor="middle"><textPath startOffset="21.46611528233685" xlink:href="#id9">September</textPath></text><line stroke="#e1ed5e" stroke-width="0.3" x1="15.007084014347285" x2="10.007500721073583" y1="101.09737516637583" y2="101.16192664675087" /><path d="M 14.007167355692545 101.11028546245083 a86.0,86.0 0 0,1 10.666146001902534,-42.60595125391555" fill="none" id="id10" stroke="none" /><text fill="#e1ed5e" style="font-size:6.75px; font-family:Arial;" text-anchor="middle"><textPath startOffset="22.20632615414155" xlink:href="#id10">October</textPath></text><path d="M 79.08570108090925 98.10471618934814 l -3.100741170113236 -0.28099361893373925 a24.113447159968622,24.113447159968622 0 0,0 0.041019125822084716,-0.413056999166975 l 3.095444918608923 0.33432614880514455" fill="#ff1802" stroke="none" /><path d="M 79.54389044137918 95.25157060432595 l -3.459898125462336 -0.8031381489184083 a24.55189047196361,24.55189047196361 0 0,0 0.09910452398150181,-0.41085223345375976 l 3.4455608012200196 0.8625756140315649" fill="#ff1f03" stroke="none" /><path d="M 79.62865764111835 94.90015583598534 l -3.4240885574213746 -0.8572001657525232 a24.529755596812638,24.529755596812638 0 0,0 0.10606627554835456,-0.4087166268446431 l 3.4088259500027127 0.9160132181460301" fill="#ff1e03" stroke="none" /><path d="M 80.02781315780177 93.51064311812611 l -3.349705716134043 -1.0883853637559024 a24.522089022829938,24.522089022829938 0 0,0 0.13389376617748544,-0.4003253185504463 l 3.330474656184785 1.145883785228671" fill="#ff1e03" stroke="none" /><path d="M 80.14247586403 93.16781622104843 l -6.876185959949663 -2.3658219350479857 a28.271798043411483,28.271798043411483 0 0,0 0.16228943590954803,-0.45881408944676794 l 6.834443443230306 2.4838336509213645" fill="#ff5307" stroke="none" /><path d="M 80.52162464483688 92.15188598940014 l -3.259451995735311 -1.313279491137197 a24.51407602853787,24.51407602853787 0 0,0 0.16106718371243076,-0.39003696109406666 l 3.2363631251366782 1.369191022684575" fill="#ff1e03" stroke="none" /><path d="M 80.65960295795067 91.81776055985345 l -3.242161525668016 -1.3716441213161144 a24.52037199086446,24.52037199086446 0 0,0 0.16780025015240962,-0.38730611259164444 l 3.218070565672928 1.427249378494358" fill="#ff1e03" stroke="none" /><path d="M 80.803312248108 91.48605970444005 l -6.445524803244864 -2.858660517774423 a28.05100914374156,28.05100914374156 0 0,0 0.19955979871022983,-0.4397035638042641 l 6.395362687571283 2.9691860904207577" fill="#ff5007" stroke="none" /><path d="M 81.10775173730289 90.83032412892265 l -5.160102908196536 -2.5045442168464684 a26.735800184570365,26.735800184570365 0 0,0 0.20451612358712037,-0.4122920254086099 l 5.116226771656002 2.5929958307540395" fill="#ff3e05" stroke="none" /><path d="M 81.26839172434947 90.50648371742162 l -6.384648245481088 -3.2358546679519 a28.157827090020465,28.157827090020465 0 0,0 0.22283644024142849,-0.430449075132069 l 6.3280023720795455 3.3452764653443046" fill="#ff5207" stroke="none" /><path d="M 81.43458229118936 90.18545643968196 l -1.8840910978781675 -0.9960182120199302 a23.131162017252358,23.131162017252358 0 0,0 0.1891158654298831,-0.35040297691931316 l 1.8666671332298128 1.0283021722717163" fill="#ff0a01" stroke="none" /><line stroke="#e1ed5e" stroke-width="0.3" x1="26.266209847984243" x2="21.928928074336255" y1="57.711370442889674" y2="55.22380399835377" /><path d="M 25.398753493254645 57.213857153982495 a86.0,86.0 0 0,1 29.58750427330803,-30.492523968695096" fill="none" id="id11" stroke="none" /><text fill="#e1ed5e" style="font-size:6.75px; font-family:Arial;" text-anchor="middle"><textPath startOffset="21.46611528233685" xlink:href="#id11">November</textPath></text><path d="M 81.78341655067845 89.55222093294921 l -6.103467632161397 -3.5005291492292887 a28.036051553353328,28.036051553353328 0 0,0 0.24370047510075873,-0.41656310861685186 l 6.042307482590316 3.6050716702000325" fill="#ff5007" stroke="none" /><path d="M 81.96595687620814 89.24020034530311 l -3.021606216245632 -1.8028057989557333 a24.51855266761813,24.51855266761813 0 0,0 0.21936422357774865,-0.36057710562286344 l 2.990126194381664 1.8545506777856713" fill="#ff1e03" stroke="none" /><path d="M 82.34701348167596 88.62581576622439 l -21.695123688216643 -13.978616793718194 a46.80852803459816,46.80852803459816 0 0,0 0.4422366407622567,-0.673556743992882 l 21.451290412096466 14.349991601688744" fill="#bfff1e" stroke="none" /><path d="M 82.54541684631803 88.32363383020206 l -5.864099556027214 -3.922830643932023 a28.055229540133382,28.055229540133382 0 0,0 0.27196944497232345,-0.3990816012300413 l 5.79570564538615 4.02319026843248" fill="#ff5007" stroke="none" /><path d="M 82.7489923806493 88.02491185347247 l -6.36939500904758 -4.421426756999371 a28.75359318953414,28.75359318953414 0 0,0 0.2857386682832823,-0.40415708237099573 l 6.29234372096042 4.530410339702153" fill="#ff5a08" stroke="none" /><path d="M 82.95767976084542 87.72973835380427 l -2.917806748452039 -2.100785088774871 a24.595399033560962,24.595399033560962 0 0,0 0.2503312539818108,-0.3414515491032685 l 2.881212881956595 2.1506990815496425" fill="#ff1f03" stroke="none" /><path d="M 83.17141714833178 87.43820079747577 l -5.62881933982976 -4.20166682586806 a28.0240736952314,28.0240736952314 0 0,0 0.2918828176228463,-0.3840835738723676 l 5.555660581982805 4.297935175621451" fill="#ff5007" stroke="none" /><path d="M 83.39014120810768 87.1503855733568 l -5.567504877588189 -4.307098085047187 a28.039048549071488,28.039048549071488 0 0,0 0.2986104186679702,-0.37920490734552686 l 5.492540378326248 4.402295386345762" fill="#ff5007" stroke="none" /><line stroke="#e1ed5e" stroke-width="0.3" x1="56.76296977257108" x2="54.21961505331056" y1="26.818313649435495" y2="22.513508569990535" /><path d="M 56.25429882871898 25.957352633546506 a86.0,86.0 0 0,1 42.26535254187918,-11.944610805530505" fill="none" id="id12" stroke="none" /><text fill="#e1ed5e" style="font-size:6.75px; font-family:Arial;" text-anchor="middle"><textPath startOffset="22.20632615414155" xlink:href="#id12">December</textPath></text></svg>